<mxfile host="Electron" modified="2023-11-15T09:17:53.227Z" agent="Mozilla/5.0 (Windows NT 10.0; Win64; x64) AppleWebKit/537.36 (KHTML, like Gecko) draw.io/22.0.3 Chrome/114.0.5735.289 Electron/25.8.4 Safari/537.36" etag="ohbndF5Pgt6sQQluY0UG" version="22.0.3" type="device" pages="2">
  <diagram id="quXvVyBujr2Ifn7DhVhy" name="schema">
    <mxGraphModel dx="757" dy="812" grid="1" gridSize="10" guides="1" tooltips="1" connect="1" arrows="1" fold="1" page="1" pageScale="1" pageWidth="850" pageHeight="1100" math="0" shadow="0">
      <root>
        <mxCell id="0" />
        <mxCell id="1" parent="0" />
        <mxCell id="LEKKRzw4uS93Bm_-wkS0-1" value="&lt;h1&gt;Create a new business role&lt;/h1&gt;" style="text;html=1;strokeColor=none;fillColor=none;spacing=5;spacingTop=-20;whiteSpace=wrap;overflow=hidden;rounded=0;" vertex="1" parent="1">
          <mxGeometry x="35" y="70" width="400" height="60" as="geometry" />
        </mxCell>
        <mxCell id="LEKKRzw4uS93Bm_-wkS0-8" value="Start" style="whiteSpace=wrap;html=1;rounded=1;strokeWidth=2;strokeColor=#666666;fontColor=#333333;fillColor=#f5f5f5;" vertex="1" parent="1">
          <mxGeometry x="175.625" y="130" width="118.75" height="40" as="geometry" />
        </mxCell>
        <mxCell id="LEKKRzw4uS93Bm_-wkS0-9" value="Create candidate role" style="whiteSpace=wrap;html=1;strokeWidth=2;strokeColor=#4D4D4D;fillColor=#dae8fc;" vertex="1" parent="1">
          <mxGeometry x="175" y="220" width="120" height="40" as="geometry" />
        </mxCell>
        <mxCell id="LEKKRzw4uS93Bm_-wkS0-10" value="" style="html=1;rounded=1;curved=0;sourcePerimeterSpacing=0;targetPerimeterSpacing=0;startSize=6;endSize=6;noEdgeStyle=1;orthogonal=1;" edge="1" parent="1" source="LEKKRzw4uS93Bm_-wkS0-8" target="LEKKRzw4uS93Bm_-wkS0-9">
          <mxGeometry relative="1" as="geometry">
            <Array as="points">
              <mxPoint x="235" y="182" />
              <mxPoint x="235" y="208" />
            </Array>
          </mxGeometry>
        </mxCell>
        <mxCell id="LEKKRzw4uS93Bm_-wkS0-11" value="" style="html=1;rounded=1;curved=0;sourcePerimeterSpacing=0;targetPerimeterSpacing=0;startSize=6;endSize=6;noEdgeStyle=1;orthogonal=1;" edge="1" parent="1" source="LEKKRzw4uS93Bm_-wkS0-9" target="LEKKRzw4uS93Bm_-wkS0-12">
          <mxGeometry relative="1" as="geometry">
            <mxPoint x="1690" y="2990" as="sourcePoint" />
            <Array as="points">
              <mxPoint x="235" y="272" />
              <mxPoint x="235" y="298" />
            </Array>
          </mxGeometry>
        </mxCell>
        <mxCell id="LEKKRzw4uS93Bm_-wkS0-12" value="Tune content of the candidate role" style="whiteSpace=wrap;html=1;strokeWidth=2;strokeColor=#4D4D4D;fontColor=default;fillColor=#dae8fc;" vertex="1" parent="1">
          <mxGeometry x="175" y="310" width="120" height="40" as="geometry" />
        </mxCell>
        <mxCell id="LEKKRzw4uS93Bm_-wkS0-13" value="Perform business review" style="whiteSpace=wrap;html=1;strokeWidth=2;strokeColor=#4D4D4D;fontColor=default;fillColor=#dae8fc;" vertex="1" parent="1">
          <mxGeometry x="175" y="350" width="120" height="40" as="geometry" />
        </mxCell>
        <mxCell id="LEKKRzw4uS93Bm_-wkS0-14" value="" style="html=1;rounded=1;sourcePerimeterSpacing=0;targetPerimeterSpacing=0;startSize=6;endSize=6;orthogonal=1;" edge="1" parent="1" source="LEKKRzw4uS93Bm_-wkS0-13" target="LEKKRzw4uS93Bm_-wkS0-15">
          <mxGeometry relative="1" as="geometry">
            <mxPoint x="1410" y="2600" as="sourcePoint" />
            <mxPoint x="235" y="439.9999999999999" as="targetPoint" />
          </mxGeometry>
        </mxCell>
        <mxCell id="LEKKRzw4uS93Bm_-wkS0-15" value="Simulate application of the role" style="whiteSpace=wrap;html=1;fontSize=12;strokeWidth=2;strokeColor=#4D4D4D;fontColor=default;fillColor=#dae8fc;" vertex="1" parent="1">
          <mxGeometry x="175.63" y="440" width="120" height="40" as="geometry" />
        </mxCell>
        <mxCell id="LEKKRzw4uS93Bm_-wkS0-16" value="" style="html=1;rounded=1;curved=0;sourcePerimeterSpacing=0;targetPerimeterSpacing=0;startSize=6;endSize=6;noEdgeStyle=1;orthogonal=1;exitX=0.279;exitY=0.999;exitDx=0;exitDy=0;exitPerimeter=0;entryX=0.5;entryY=0;entryDx=0;entryDy=0;" edge="1" parent="1" source="LEKKRzw4uS93Bm_-wkS0-26" target="LEKKRzw4uS93Bm_-wkS0-17">
          <mxGeometry relative="1" as="geometry">
            <mxPoint x="210" y="550" as="sourcePoint" />
            <mxPoint x="160" y="590" as="targetPoint" />
            <Array as="points">
              <mxPoint x="209" y="560" />
              <mxPoint x="160" y="570" />
            </Array>
          </mxGeometry>
        </mxCell>
        <mxCell id="LEKKRzw4uS93Bm_-wkS0-17" value="Set the candidate role to production" style="whiteSpace=wrap;html=1;strokeWidth=2;strokeColor=#4D4D4D;fontColor=default;fillColor=#dae8fc;" vertex="1" parent="1">
          <mxGeometry x="100" y="600" width="120" height="40" as="geometry" />
        </mxCell>
        <mxCell id="LEKKRzw4uS93Bm_-wkS0-18" value="" style="html=1;rounded=1;sourcePerimeterSpacing=0;targetPerimeterSpacing=0;startSize=6;endSize=6;orthogonal=1;" edge="1" parent="1" source="LEKKRzw4uS93Bm_-wkS0-17" target="LEKKRzw4uS93Bm_-wkS0-19">
          <mxGeometry relative="1" as="geometry">
            <mxPoint x="1198" y="2350" as="sourcePoint" />
          </mxGeometry>
        </mxCell>
        <mxCell id="LEKKRzw4uS93Bm_-wkS0-19" value="End - new business role is applied" style="whiteSpace=wrap;html=1;rounded=1;strokeWidth=2;strokeColor=#4D4D4D;fillColor=#d5e8d4;" vertex="1" parent="1">
          <mxGeometry x="100" y="680" width="120" height="40" as="geometry" />
        </mxCell>
        <mxCell id="LEKKRzw4uS93Bm_-wkS0-20" value="End - the role is not used" style="whiteSpace=wrap;html=1;rounded=1;fillColor=#f5f5f5;fontColor=#4D4D4D;strokeColor=#4D4D4D;strokeWidth=2;" vertex="1" parent="1">
          <mxGeometry x="250" y="680" width="120" height="40" as="geometry" />
        </mxCell>
        <mxCell id="LEKKRzw4uS93Bm_-wkS0-21" value="Cleanup of the candidate role" style="whiteSpace=wrap;html=1;strokeWidth=2;strokeColor=#4D4D4D;fontColor=default;fillColor=#dae8fc;" vertex="1" parent="1">
          <mxGeometry x="250" y="600" width="120" height="40" as="geometry" />
        </mxCell>
        <mxCell id="LEKKRzw4uS93Bm_-wkS0-22" value="" style="html=1;rounded=1;sourcePerimeterSpacing=0;targetPerimeterSpacing=0;startSize=6;endSize=6;orthogonal=1;" edge="1" parent="1" source="LEKKRzw4uS93Bm_-wkS0-21" target="LEKKRzw4uS93Bm_-wkS0-20">
          <mxGeometry relative="1" as="geometry">
            <mxPoint x="1173" y="2180" as="sourcePoint" />
          </mxGeometry>
        </mxCell>
        <mxCell id="LEKKRzw4uS93Bm_-wkS0-23" value="" style="html=1;rounded=1;curved=0;sourcePerimeterSpacing=0;targetPerimeterSpacing=0;startSize=6;endSize=6;noEdgeStyle=1;orthogonal=1;exitX=0.723;exitY=0.987;exitDx=0;exitDy=0;exitPerimeter=0;entryX=0.528;entryY=-0.025;entryDx=0;entryDy=0;entryPerimeter=0;" edge="1" parent="1" source="LEKKRzw4uS93Bm_-wkS0-26" target="LEKKRzw4uS93Bm_-wkS0-21">
          <mxGeometry relative="1" as="geometry">
            <mxPoint x="263" y="550" as="sourcePoint" />
            <Array as="points">
              <mxPoint x="263" y="560" />
              <mxPoint x="313" y="580" />
            </Array>
          </mxGeometry>
        </mxCell>
        <mxCell id="LEKKRzw4uS93Bm_-wkS0-24" value="" style="endArrow=classic;html=1;rounded=1;exitX=0;exitY=0.5;exitDx=0;exitDy=0;entryX=-0.01;entryY=0.642;entryDx=0;entryDy=0;entryPerimeter=0;edgeStyle=orthogonalEdgeStyle;" edge="1" parent="1" source="LEKKRzw4uS93Bm_-wkS0-26" target="LEKKRzw4uS93Bm_-wkS0-12">
          <mxGeometry width="50" height="50" relative="1" as="geometry">
            <mxPoint x="420" y="480" as="sourcePoint" />
            <mxPoint x="470" y="430" as="targetPoint" />
            <Array as="points">
              <mxPoint x="150" y="500" />
              <mxPoint x="150" y="336" />
            </Array>
          </mxGeometry>
        </mxCell>
        <mxCell id="LEKKRzw4uS93Bm_-wkS0-26" value="Review simulation results" style="whiteSpace=wrap;html=1;fontSize=12;strokeWidth=2;strokeColor=#4D4D4D;fontColor=default;fillColor=#dae8fc;" vertex="1" parent="1">
          <mxGeometry x="175.63" y="480" width="120" height="40" as="geometry" />
        </mxCell>
      </root>
    </mxGraphModel>
  </diagram>
  <diagram id="XHxrP46yzmcaC3NXBYVV" name="schema-with-description">
    <mxGraphModel dx="1098" dy="1178" grid="1" gridSize="10" guides="1" tooltips="1" connect="1" arrows="1" fold="1" page="1" pageScale="1" pageWidth="850" pageHeight="1100" math="0" shadow="0">
      <root>
        <mxCell id="0" />
        <mxCell id="1" parent="0" />
        <mxCell id="QqjrNLbFyx6J9-42t7wA-17" value="&lt;h1&gt;Create a new business role&lt;/h1&gt;&lt;p&gt;Process may be started out from role mining - as candidate role&lt;br&gt;or it may be started for creating business role from scratch&lt;/p&gt;" style="text;html=1;strokeColor=none;fillColor=none;spacing=5;spacingTop=-20;whiteSpace=wrap;overflow=hidden;rounded=0;" parent="1" vertex="1">
          <mxGeometry x="20" y="20" width="400" height="90" as="geometry" />
        </mxCell>
        <mxCell id="QqjrNLbFyx6J9-42t7wA-43" value="&lt;u style=&quot;font-size: 10px;&quot;&gt;Performed by administrator (?)&lt;/u&gt;&lt;br style=&quot;font-size: 10px;&quot;&gt;New candidate role may be created from a proposal&amp;nbsp; from role mining,&lt;br style=&quot;font-size: 10px;&quot;&gt;or &lt;br style=&quot;font-size: 10px;&quot;&gt;it can be newly created business role from scratch" style="text;html=1;strokeColor=none;fillColor=none;align=left;verticalAlign=top;whiteSpace=wrap;rounded=0;fontSize=10;" parent="1" vertex="1">
          <mxGeometry x="490" y="135" width="300" height="95" as="geometry" />
        </mxCell>
        <mxCell id="QqjrNLbFyx6J9-42t7wA-46" value="" style="endArrow=none;dashed=1;html=1;dashPattern=1 3;strokeWidth=1;rounded=0;entryX=0;entryY=0.5;entryDx=0;entryDy=0;exitX=1;exitY=0.5;exitDx=0;exitDy=0;" parent="1" source="QqjrNLbFyx6J9-42t7wA-3" target="QqjrNLbFyx6J9-42t7wA-43" edge="1">
          <mxGeometry width="50" height="50" relative="1" as="geometry">
            <mxPoint x="300" y="150" as="sourcePoint" />
            <mxPoint x="479.1600000000003" y="163.66000000000008" as="targetPoint" />
          </mxGeometry>
        </mxCell>
        <mxCell id="QqjrNLbFyx6J9-42t7wA-53" value="&lt;u style=&quot;font-size: 10px;&quot;&gt;Performed by administrator&lt;/u&gt;&lt;br style=&quot;font-size: 10px;&quot;&gt;Modification of the content:&lt;br style=&quot;font-size: 10px;&quot;&gt;- attributes&lt;br style=&quot;font-size: 10px;&quot;&gt;- governance (owners, approvers)&lt;br style=&quot;font-size: 10px;&quot;&gt;- induced roles&lt;br style=&quot;font-size: 10px;&quot;&gt;- proposed members (not yet implemented)" style="text;html=1;strokeColor=none;fillColor=none;align=left;verticalAlign=top;whiteSpace=wrap;rounded=0;fontSize=10;" parent="1" vertex="1">
          <mxGeometry x="490" y="250" width="300" height="95" as="geometry" />
        </mxCell>
        <mxCell id="QqjrNLbFyx6J9-42t7wA-54" value="" style="endArrow=none;dashed=1;html=1;dashPattern=1 3;strokeWidth=1;rounded=0;entryX=0;entryY=0.5;entryDx=0;entryDy=0;exitX=1;exitY=0.5;exitDx=0;exitDy=0;" parent="1" source="QqjrNLbFyx6J9-42t7wA-20" target="QqjrNLbFyx6J9-42t7wA-53" edge="1">
          <mxGeometry width="50" height="50" relative="1" as="geometry">
            <mxPoint x="305" y="250" as="sourcePoint" />
            <mxPoint x="500" y="193" as="targetPoint" />
          </mxGeometry>
        </mxCell>
        <mxCell id="QqjrNLbFyx6J9-42t7wA-55" value="&lt;u style=&quot;font-size: 10px;&quot;&gt;Performed by business user&lt;/u&gt;&lt;br style=&quot;font-size: 10px;&quot;&gt;&amp;nbsp; Modification of the content&amp;nbsp;&lt;br style=&quot;font-size: 10px;&quot;&gt;&lt;blockquote style=&quot;margin: 0 0 0 40px; border: none; padding: 0px;&quot;&gt;&lt;br style=&quot;font-size: 10px;&quot;&gt;No workflow - just simple.&lt;/blockquote&gt;" style="text;html=1;strokeColor=none;fillColor=none;align=left;verticalAlign=top;whiteSpace=wrap;rounded=0;fontSize=10;" parent="1" vertex="1">
          <mxGeometry x="490" y="345" width="300" height="65" as="geometry" />
        </mxCell>
        <mxCell id="QqjrNLbFyx6J9-42t7wA-56" value="" style="endArrow=none;dashed=1;html=1;dashPattern=1 3;strokeWidth=1;rounded=0;exitX=1;exitY=0.5;exitDx=0;exitDy=0;entryX=0;entryY=0.5;entryDx=0;entryDy=0;" parent="1" source="QqjrNLbFyx6J9-42t7wA-26" target="QqjrNLbFyx6J9-42t7wA-55" edge="1">
          <mxGeometry width="50" height="50" relative="1" as="geometry">
            <mxPoint x="305" y="340" as="sourcePoint" />
            <mxPoint x="480" y="390" as="targetPoint" />
          </mxGeometry>
        </mxCell>
        <mxCell id="QqjrNLbFyx6J9-42t7wA-2" value="Start" style="whiteSpace=wrap;html=1;rounded=1;" parent="1" vertex="1">
          <mxGeometry x="175.625" y="130" width="118.75" height="40" as="geometry" />
        </mxCell>
        <mxCell id="QqjrNLbFyx6J9-42t7wA-3" value="Create candidate role" style="whiteSpace=wrap;html=1;" parent="1" vertex="1">
          <mxGeometry x="175" y="220" width="120" height="40" as="geometry" />
        </mxCell>
        <mxCell id="QqjrNLbFyx6J9-42t7wA-4" value="" style="html=1;rounded=1;curved=0;sourcePerimeterSpacing=0;targetPerimeterSpacing=0;startSize=6;endSize=6;noEdgeStyle=1;orthogonal=1;" parent="1" source="QqjrNLbFyx6J9-42t7wA-2" target="QqjrNLbFyx6J9-42t7wA-3" edge="1">
          <mxGeometry relative="1" as="geometry">
            <Array as="points">
              <mxPoint x="235" y="182" />
              <mxPoint x="235" y="208" />
            </Array>
          </mxGeometry>
        </mxCell>
        <mxCell id="QqjrNLbFyx6J9-42t7wA-19" value="" style="html=1;rounded=1;curved=0;sourcePerimeterSpacing=0;targetPerimeterSpacing=0;startSize=6;endSize=6;noEdgeStyle=1;orthogonal=1;" parent="1" source="QqjrNLbFyx6J9-42t7wA-3" target="QqjrNLbFyx6J9-42t7wA-20" edge="1">
          <mxGeometry relative="1" as="geometry">
            <mxPoint x="1690" y="2990" as="sourcePoint" />
            <Array as="points">
              <mxPoint x="235" y="272" />
              <mxPoint x="235" y="298" />
            </Array>
          </mxGeometry>
        </mxCell>
        <mxCell id="QqjrNLbFyx6J9-42t7wA-20" value="Tune content of the candidate role" style="whiteSpace=wrap;html=1;" parent="1" vertex="1">
          <mxGeometry x="175" y="310" width="120" height="40" as="geometry" />
        </mxCell>
        <mxCell id="QqjrNLbFyx6J9-42t7wA-26" value="Perform business review" style="whiteSpace=wrap;html=1;" parent="1" vertex="1">
          <mxGeometry x="175" y="350" width="120" height="40" as="geometry" />
        </mxCell>
        <mxCell id="QqjrNLbFyx6J9-42t7wA-30" value="" style="html=1;rounded=1;sourcePerimeterSpacing=0;targetPerimeterSpacing=0;startSize=6;endSize=6;orthogonal=1;" parent="1" source="QqjrNLbFyx6J9-42t7wA-26" target="QqjrNLbFyx6J9-42t7wA-33" edge="1">
          <mxGeometry relative="1" as="geometry">
            <mxPoint x="1410" y="2600" as="sourcePoint" />
            <mxPoint x="235" y="439.9999999999999" as="targetPoint" />
          </mxGeometry>
        </mxCell>
        <mxCell id="QqjrNLbFyx6J9-42t7wA-33" value="Simulate application of the role" style="whiteSpace=wrap;html=1;fontSize=12;" parent="1" vertex="1">
          <mxGeometry x="175.63" y="440" width="120" height="40" as="geometry" />
        </mxCell>
        <mxCell id="QqjrNLbFyx6J9-42t7wA-34" value="" style="html=1;rounded=1;curved=0;sourcePerimeterSpacing=0;targetPerimeterSpacing=0;startSize=6;endSize=6;noEdgeStyle=1;orthogonal=1;exitX=0.279;exitY=0.999;exitDx=0;exitDy=0;exitPerimeter=0;entryX=0.5;entryY=0;entryDx=0;entryDy=0;" parent="1" source="51fi80NuiuKjZNMdPU6k-5" target="QqjrNLbFyx6J9-42t7wA-35" edge="1">
          <mxGeometry relative="1" as="geometry">
            <mxPoint x="210" y="550" as="sourcePoint" />
            <mxPoint x="160" y="590" as="targetPoint" />
            <Array as="points">
              <mxPoint x="209" y="560" />
              <mxPoint x="160" y="570" />
            </Array>
          </mxGeometry>
        </mxCell>
        <mxCell id="QqjrNLbFyx6J9-42t7wA-35" value="Set the candidate role to production" style="whiteSpace=wrap;html=1;" parent="1" vertex="1">
          <mxGeometry x="100" y="600" width="120" height="40" as="geometry" />
        </mxCell>
        <mxCell id="QqjrNLbFyx6J9-42t7wA-38" value="" style="html=1;rounded=1;sourcePerimeterSpacing=0;targetPerimeterSpacing=0;startSize=6;endSize=6;orthogonal=1;" parent="1" source="QqjrNLbFyx6J9-42t7wA-35" target="QqjrNLbFyx6J9-42t7wA-39" edge="1">
          <mxGeometry relative="1" as="geometry">
            <mxPoint x="1198" y="2350" as="sourcePoint" />
          </mxGeometry>
        </mxCell>
        <mxCell id="QqjrNLbFyx6J9-42t7wA-39" value="End - new business role is applied" style="whiteSpace=wrap;html=1;rounded=1;" parent="1" vertex="1">
          <mxGeometry x="100" y="680" width="120" height="40" as="geometry" />
        </mxCell>
        <mxCell id="QqjrNLbFyx6J9-42t7wA-41" value="End - the role is not used" style="whiteSpace=wrap;html=1;rounded=1;fillColor=#f5f5f5;fontColor=#333333;strokeColor=#666666;" parent="1" vertex="1">
          <mxGeometry x="250" y="680" width="120" height="40" as="geometry" />
        </mxCell>
        <mxCell id="QqjrNLbFyx6J9-42t7wA-37" value="Cleanup of the candidate role" style="whiteSpace=wrap;html=1;" parent="1" vertex="1">
          <mxGeometry x="250" y="600" width="120" height="40" as="geometry" />
        </mxCell>
        <mxCell id="QqjrNLbFyx6J9-42t7wA-40" value="" style="html=1;rounded=1;sourcePerimeterSpacing=0;targetPerimeterSpacing=0;startSize=6;endSize=6;orthogonal=1;" parent="1" source="QqjrNLbFyx6J9-42t7wA-37" target="QqjrNLbFyx6J9-42t7wA-41" edge="1">
          <mxGeometry relative="1" as="geometry">
            <mxPoint x="1173" y="2180" as="sourcePoint" />
          </mxGeometry>
        </mxCell>
        <mxCell id="QqjrNLbFyx6J9-42t7wA-36" value="" style="html=1;rounded=1;curved=0;sourcePerimeterSpacing=0;targetPerimeterSpacing=0;startSize=6;endSize=6;noEdgeStyle=1;orthogonal=1;exitX=0.723;exitY=0.987;exitDx=0;exitDy=0;exitPerimeter=0;entryX=0.528;entryY=-0.025;entryDx=0;entryDy=0;entryPerimeter=0;" parent="1" source="51fi80NuiuKjZNMdPU6k-5" target="QqjrNLbFyx6J9-42t7wA-37" edge="1">
          <mxGeometry relative="1" as="geometry">
            <mxPoint x="263" y="550" as="sourcePoint" />
            <Array as="points">
              <mxPoint x="263" y="560" />
              <mxPoint x="313" y="580" />
            </Array>
          </mxGeometry>
        </mxCell>
        <mxCell id="51fi80NuiuKjZNMdPU6k-3" value="" style="endArrow=classic;html=1;rounded=1;exitX=0;exitY=0.5;exitDx=0;exitDy=0;entryX=-0.01;entryY=0.642;entryDx=0;entryDy=0;entryPerimeter=0;edgeStyle=orthogonalEdgeStyle;" parent="1" source="51fi80NuiuKjZNMdPU6k-5" target="QqjrNLbFyx6J9-42t7wA-20" edge="1">
          <mxGeometry width="50" height="50" relative="1" as="geometry">
            <mxPoint x="420" y="480" as="sourcePoint" />
            <mxPoint x="470" y="430" as="targetPoint" />
            <Array as="points">
              <mxPoint x="150" y="500" />
              <mxPoint x="150" y="336" />
            </Array>
          </mxGeometry>
        </mxCell>
        <mxCell id="51fi80NuiuKjZNMdPU6k-4" value="&lt;u style=&quot;font-size: 10px;&quot;&gt;Performed by whom ?&lt;br style=&quot;font-size: 10px;&quot;&gt;&lt;/u&gt;(probably both - admin and business user)&lt;br style=&quot;font-size: 10px;&quot;&gt;View modifications in assignments (new/removed), attributes&lt;br style=&quot;font-size: 10px;&quot;&gt;&lt;u style=&quot;font-size: 10px;&quot;&gt;TODO:&lt;br style=&quot;font-size: 10px;&quot;&gt;&lt;/u&gt;- show real assignment changes only (or explain assignment -&amp;gt; roleMembershipRef changes)&lt;br style=&quot;font-size: 10px;&quot;&gt;-&amp;nbsp; provide info, that if assignment is assigned by a rule, then it can&#39;t be removed" style="text;html=1;strokeColor=none;fillColor=none;align=left;verticalAlign=top;whiteSpace=wrap;rounded=0;fontSize=10;" parent="1" vertex="1">
          <mxGeometry x="490" y="430" width="300" height="110" as="geometry" />
        </mxCell>
        <mxCell id="51fi80NuiuKjZNMdPU6k-5" value="Review simulation results" style="whiteSpace=wrap;html=1;fontSize=12;" parent="1" vertex="1">
          <mxGeometry x="175.63" y="480" width="120" height="40" as="geometry" />
        </mxCell>
        <mxCell id="51fi80NuiuKjZNMdPU6k-6" value="" style="endArrow=none;dashed=1;html=1;dashPattern=1 3;strokeWidth=1;rounded=0;exitX=1;exitY=0;exitDx=0;exitDy=0;entryX=-0.011;entryY=0.534;entryDx=0;entryDy=0;entryPerimeter=0;" parent="1" source="51fi80NuiuKjZNMdPU6k-5" target="51fi80NuiuKjZNMdPU6k-4" edge="1">
          <mxGeometry width="50" height="50" relative="1" as="geometry">
            <mxPoint x="305" y="380" as="sourcePoint" />
            <mxPoint x="500" y="388" as="targetPoint" />
          </mxGeometry>
        </mxCell>
        <mxCell id="51fi80NuiuKjZNMdPU6k-7" value="&lt;u style=&quot;font-size: 10px;&quot;&gt;Performed by administrator&lt;/u&gt;&lt;br style=&quot;font-size: 10px;&quot;&gt;set lifecycleState to Active&lt;br&gt;- assign new role to members&lt;br&gt;- unassign application roles directly assigned&lt;br&gt;&lt;span style=&quot;white-space: pre;&quot;&gt;&#x9;&lt;/span&gt;(except roles assigned by rule)&lt;br&gt;&lt;span style=&quot;white-space: pre;&quot;&gt;&#x9;&lt;/span&gt;Only when the role is replacing app roles (role mining)" style="text;html=1;strokeColor=none;fillColor=none;align=left;verticalAlign=top;whiteSpace=wrap;rounded=0;fontSize=10;" parent="1" vertex="1">
          <mxGeometry x="490" y="550" width="300" height="80" as="geometry" />
        </mxCell>
        <mxCell id="51fi80NuiuKjZNMdPU6k-8" value="" style="endArrow=none;dashed=1;html=1;dashPattern=1 3;strokeWidth=1;rounded=0;entryX=0.003;entryY=0.386;entryDx=0;entryDy=0;entryPerimeter=0;edgeStyle=orthogonalEdgeStyle;" parent="1" source="QqjrNLbFyx6J9-42t7wA-35" target="51fi80NuiuKjZNMdPU6k-7" edge="1">
          <mxGeometry width="50" height="50" relative="1" as="geometry">
            <mxPoint x="291" y="492" as="sourcePoint" />
            <mxPoint x="497" y="499" as="targetPoint" />
            <Array as="points">
              <mxPoint x="220" y="580" />
              <mxPoint x="491" y="580" />
            </Array>
          </mxGeometry>
        </mxCell>
        <mxCell id="51fi80NuiuKjZNMdPU6k-9" value="&lt;u style=&quot;font-size: 10px;&quot;&gt;Performed by administrator&lt;/u&gt;&lt;br style=&quot;font-size: 10px;&quot;&gt;set lifecycleState to Archived (?)&lt;br&gt;should we keep the role ?" style="text;html=1;strokeColor=none;fillColor=none;align=left;verticalAlign=top;whiteSpace=wrap;rounded=0;fontSize=10;" parent="1" vertex="1">
          <mxGeometry x="490" y="640" width="300" height="40" as="geometry" />
        </mxCell>
        <mxCell id="51fi80NuiuKjZNMdPU6k-10" value="" style="endArrow=none;dashed=1;html=1;dashPattern=1 3;strokeWidth=1;rounded=0;exitX=0.992;exitY=0.665;exitDx=0;exitDy=0;exitPerimeter=0;entryX=0;entryY=0.5;entryDx=0;entryDy=0;" parent="1" source="QqjrNLbFyx6J9-42t7wA-37" target="51fi80NuiuKjZNMdPU6k-9" edge="1">
          <mxGeometry width="50" height="50" relative="1" as="geometry">
            <mxPoint x="306" y="490" as="sourcePoint" />
            <mxPoint x="497" y="499" as="targetPoint" />
          </mxGeometry>
        </mxCell>
      </root>
    </mxGraphModel>
  </diagram>
</mxfile>
